<svg viewBox="0 0 800 400" xmlns="http://www.w3.org/2000/svg">
    <style>
        .bg { fill: #1a1a2e; }
        .grid { stroke: #2a2a4e; stroke-width: 1; }
        .axis { stroke: #4a4a6e; stroke-width: 2; }
        .label { fill: #ffffff; font-family: sans-serif; font-size: 14px; }
        .title { fill: #ffffff; font-family: sans-serif; font-size: 18px; font-weight: bold; }
        .sublabel { fill: #888888; font-family: monospace; font-size: 11px; }
        .ch-label { fill: #666666; font-family: monospace; font-size: 10px; font-weight: bold; }
        .meter-bg { fill: #2a2a4e; }
        .meter-good { fill: #44ff88; }
        .meter-bad-l { fill: #ff8844; }
        .meter-bad-r { fill: #ff8844; opacity: 0.4; }
        .wave-l { fill: none; stroke: #44ff88; stroke-width: 1.5; }
        .wave-r { fill: none; stroke: #44ff88; stroke-width: 1.5; opacity: 0.7; stroke-dasharray: 5,3; }
        .wave-l-bad { fill: none; stroke: #ff8844; stroke-width: 1.5; }
        .wave-r-bad { fill: none; stroke: #ff8844; stroke-width: 1.5; opacity: 0.7; stroke-dasharray: 5,3; }
    </style>

    <rect class="bg" width="800" height="400"/>
    <text class="title" x="400" y="30" text-anchor="middle">Channel Imbalance: L/R Level Mismatch</text>

    <!-- Left panel: Balanced -->
    <g transform="translate(50, 60)">
        <text class="label" x="150" y="0" text-anchor="middle">Balanced Channels</text>

        <!-- L channel -->
        <text class="ch-label" x="-5" y="58" text-anchor="end">L</text>
        <line class="axis" x1="0" y1="55" x2="240" y2="55"/>
        <path class="wave-l" d="
            M 0,55 C 15,25 30,25 45,55 C 60,85 75,85 90,55
            C 105,25 120,25 135,55 C 150,85 165,85 180,55
            C 195,25 210,25 225,55 L 240,55
        "/>

        <!-- Divider -->
        <line class="grid" x1="0" y1="105" x2="240" y2="105"/>

        <!-- R channel (same amplitude) -->
        <text class="ch-label" x="-5" y="153" text-anchor="end">R</text>
        <line class="axis" x1="0" y1="150" x2="240" y2="150"/>
        <path class="wave-r" d="
            M 0,150 C 15,120 30,120 45,150 C 60,180 75,180 90,150
            C 105,120 120,120 135,150 C 150,180 165,180 180,150
            C 195,120 210,120 225,150 L 240,150
        "/>

        <!-- Level meters -->
        <rect class="meter-bg" x="260" y="20" width="16" height="170" rx="2"/>
        <rect class="meter-good" x="262" y="70" width="12" height="118" rx="1"/>
        <text class="ch-label" x="268" y="15" text-anchor="middle">L</text>

        <rect class="meter-bg" x="284" y="20" width="16" height="170" rx="2"/>
        <rect class="meter-good" x="286" y="72" width="12" height="116" rx="1"/>
        <text class="ch-label" x="292" y="15" text-anchor="middle">R</text>

        <text class="sublabel" x="150" y="215" text-anchor="middle">L: -12 dB | R: -12 dB | Diff: 0 dB</text>
    </g>

    <!-- Right panel: Imbalanced -->
    <g transform="translate(450, 60)">
        <text class="label" x="150" y="0" text-anchor="middle">Imbalanced Channels</text>

        <!-- L channel (louder) -->
        <text class="ch-label" x="-5" y="58" text-anchor="end">L</text>
        <line class="axis" x1="0" y1="55" x2="240" y2="55"/>
        <path class="wave-l-bad" d="
            M 0,55 C 15,17 30,17 45,55 C 60,93 75,93 90,55
            C 105,17 120,17 135,55 C 150,93 165,93 180,55
            C 195,17 210,17 225,55 L 240,55
        "/>

        <!-- Divider -->
        <line class="grid" x1="0" y1="105" x2="240" y2="105"/>

        <!-- R channel (much quieter) -->
        <text class="ch-label" x="-5" y="153" text-anchor="end">R</text>
        <line class="axis" x1="0" y1="150" x2="240" y2="150"/>
        <path class="wave-r-bad" d="
            M 0,150 C 15,138 30,138 45,150 C 60,162 75,162 90,150
            C 105,138 120,138 135,150 C 150,162 165,162 180,150
            C 195,138 210,138 225,150 L 240,150
        "/>

        <!-- Level meters -->
        <rect class="meter-bg" x="260" y="20" width="16" height="170" rx="2"/>
        <rect class="meter-bad-l" x="262" y="45" width="12" height="143" rx="1"/>
        <text class="ch-label" x="268" y="15" text-anchor="middle">L</text>

        <rect class="meter-bg" x="284" y="20" width="16" height="170" rx="2"/>
        <rect class="meter-bad-r" x="286" y="120" width="12" height="68" rx="1"/>
        <text class="ch-label" x="292" y="15" text-anchor="middle">R</text>

        <!-- Imbalance bracket -->
        <line x1="305" y1="45" x2="310" y2="45" stroke="#ff4444" stroke-width="1"/>
        <line x1="310" y1="45" x2="310" y2="120" stroke="#ff4444" stroke-width="1"/>
        <line x1="305" y1="120" x2="310" y2="120" stroke="#ff4444" stroke-width="1"/>
        <text fill="#ff4444" font-family="monospace" font-size="9px" x="315" y="86">6 dB</text>

        <text class="sublabel" x="150" y="215" text-anchor="middle">L: -6 dB | R: -12 dB | Diff: 6 dB</text>
    </g>

    <!-- Bottom legend -->
    <g transform="translate(50, 340)">
        <rect x="0" y="0" width="12" height="12" fill="#44ff88"/>
        <text class="sublabel" x="20" y="10">Balanced channels</text>

        <rect x="200" y="0" width="12" height="12" fill="#ff8844"/>
        <text class="sublabel" x="220" y="10">Imbalanced channels</text>
    </g>

    <text class="sublabel" x="400" y="380" text-anchor="middle">Detection: |RMS(L) &#x2212; RMS(R)| in dB. Mild: 1 dB | Moderate: 2 dB | Severe: 3 dB (digital)</text>
</svg>
